<svg width="209" height="350" viewBox="0 0 209 350" fill="none" xmlns="http://www.w3.org/2000/svg">
<path d="M152.625 172.899L139.364 89.4834C138.128 81.8552 129.397 76 119.76 76H89.2415C79.6042 76 70.8729 81.814 69.6374 89.4834L56.3758 172.899C53.8635 188.816 64.201 203 79.8101 203H129.191C144.759 203 155.138 188.816 152.625 172.899ZM139.982 189.558C138.087 191.784 134.669 194.753 129.191 194.753H79.7689C74.2913 194.753 70.8729 191.661 68.9784 189.434C65.766 185.641 64.4069 180.074 65.3129 174.549L78.5745 91.4214C78.9452 89.0299 83.2696 85.8961 89.2003 85.8961H119.718C125.649 85.8961 129.974 88.9474 130.344 91.339L143.606 174.549C144.553 180.115 143.194 185.764 139.982 189.558Z" stroke="#323345" stroke-width="6" stroke-miterlimit="10" stroke-linecap="round" stroke-linejoin="round"/>
<path d="M152.625 172.899L139.364 89.4834C138.128 81.8552 129.397 76 119.76 76H89.2415C79.6042 76 70.8729 81.814 69.6374 89.4834L56.3758 172.899C53.8635 188.816 64.201 203 79.8101 203H129.191C144.759 203 155.138 188.816 152.625 172.899ZM139.982 189.558C138.087 191.784 134.669 194.753 129.191 194.753H79.7689C74.2913 194.753 70.8729 191.661 68.9784 189.434C65.766 185.641 64.4069 180.074 65.3129 174.549L78.5745 91.4214C78.9452 89.0299 83.2696 85.8961 89.2003 85.8961H119.718C125.649 85.8961 129.974 88.9474 130.344 91.339L143.606 174.549C144.553 180.115 143.194 185.764 139.982 189.558Z" fill="#1C6F45"/>
<path d="M152.625 172.899L139.364 89.4834C138.128 81.8552 129.397 76 119.76 76H89.2415C79.6042 76 70.8729 81.814 69.6374 89.4834L56.3758 172.899C53.8635 188.816 64.201 203 79.8101 203H129.191C144.759 203 155.138 188.816 152.625 172.899ZM139.982 189.558C138.087 191.784 134.669 194.753 129.191 194.753H79.7689C74.2913 194.753 70.8729 191.661 68.9784 189.434C65.766 185.641 64.4069 180.074 65.3129 174.549L78.5745 91.4214C78.9452 89.0299 83.2696 85.8961 89.2003 85.8961H119.718C125.649 85.8961 129.974 88.9474 130.344 91.339L143.606 174.549C144.553 180.115 143.194 185.764 139.982 189.558Z" fill="#1C6F45"/>
<path opacity="0.59" d="M65.7221 174.351L76 113.05C73.2908 111.038 70.3665 109.314 67.1842 108L56.3903 172.75C55.7452 176.65 55.9172 180.469 56.7773 184C59.9596 183.589 62.9699 182.809 65.8511 181.742C65.3351 179.36 65.2921 176.856 65.7221 174.351Z" fill="#C8A82F"/>
<path opacity="0.59" d="M144.114 173.821C144.428 175.943 144.428 178.105 144.153 180.144C146.746 181.409 149.495 182.388 152.363 183C153.07 179.614 153.227 175.983 152.638 172.23L142.935 109C140.067 110.55 137.396 112.508 135 114.752L144.114 173.821Z" fill="#C8A82F"/>
<path d="M129.223 203H79.8065C64.2402 203 53.8626 188.816 56.3746 172.899L69.6348 89.4834C70.8703 81.8552 79.6006 76 89.2369 76H119.752C129.388 76 138.118 81.814 139.354 89.4834L152.614 172.899C155.167 188.816 144.79 203 129.223 203Z" stroke="#323345" stroke-width="6" stroke-miterlimit="10" stroke-linecap="round" stroke-linejoin="round"/>
<path d="M152.625 172.899L139.364 89.4834C138.128 81.8552 129.397 76 119.76 76H89.2415C79.6042 76 70.8729 81.814 69.6374 89.4834L56.3758 172.899C53.8635 188.816 64.201 203 79.8101 203H129.191C144.759 203 155.138 188.816 152.625 172.899ZM143.729 192.238C140.064 196.526 134.916 198.877 129.15 198.877H79.7689C74.003 198.877 68.8549 196.526 65.1894 192.238C61.0297 187.372 59.2999 180.528 60.4119 173.559L73.6735 90.1432C74.5384 84.6179 81.4987 80.1234 89.2003 80.1234H119.718C127.379 80.1234 134.339 84.6179 135.245 90.1432L148.548 173.559C149.66 180.569 147.889 187.372 143.729 192.238Z" fill="#145B34"/>
<path d="M152.625 172.899L139.364 89.4834C138.128 81.8552 129.397 76 119.76 76H89.2415C79.6042 76 70.8729 81.814 69.6374 89.4834L56.3758 172.899C53.8635 188.816 64.201 203 79.8101 203H129.191C144.759 203 155.138 188.816 152.625 172.899Z" stroke="#323345" stroke-width="6" stroke-miterlimit="10" stroke-linecap="round" stroke-linejoin="round"/>
<path d="M116.807 113C108.558 113 100.309 113 92.1003 113C85.6072 120.547 79.8901 130.528 77.3582 142.447C74.3771 155.975 76.3781 171.111 82.6261 182.783C84.9538 187.154 89.8951 190 94.7955 190C101.452 190 108.149 190 114.806 190C119.788 190 124.851 187.072 127.097 182.618C132.815 171.276 134.897 156.305 131.018 140.591C128.2 128.713 122.769 119.351 116.807 113Z" fill="#DFC19F"/>
<path d="M104.5 178C117.479 178 128 167.479 128 154.5C128 141.521 117.479 131 104.5 131C91.5213 131 81 141.521 81 154.5C81 167.479 91.5213 178 104.5 178Z" fill="url(#paint0_radial)"/>
<path d="M98.8915 128.258C100.793 121.577 99.9368 115.478 96.9795 114.637C94.0222 113.795 90.0836 118.529 88.1823 125.21C86.281 131.892 87.1371 137.99 90.0944 138.832C93.0516 139.673 96.9903 134.939 98.8915 128.258Z" fill="#ECDBC9"/>
<path d="M116.807 113C108.558 113 100.309 113 92.1003 113C85.6072 120.547 79.8901 130.363 77.3582 142.241C74.3771 155.769 76.3781 171.028 82.6261 182.7C84.9538 187.072 89.8951 190 94.7955 190C101.452 190 108.149 190 114.806 190C119.788 190 124.851 186.866 127.097 182.411C132.815 171.07 134.897 156.181 131.018 140.509C128.2 128.59 122.769 119.351 116.807 113Z" stroke="#323345" stroke-width="4" stroke-miterlimit="10" stroke-linecap="round" stroke-linejoin="round"/>
<path d="M130 209H79V200.952C79 198.229 81.2574 196 84.0164 196H124.984C127.743 196 130 198.229 130 200.952V209Z" fill="#145B34"/>
<path d="M122 206H87V203.275C87 200.374 89.1799 198 91.8443 198H117.156C119.82 198 122 200.374 122 203.275V206Z" fill="#1B6E44"/>
<path opacity="0.59" d="M124.984 196H84.0164C81.2574 196 79 197.595 79 199.532V202C79 200.063 81.2574 198.468 84.0164 198.468H124.984C127.743 198.468 130 200.063 130 202V199.532C130 197.595 127.743 196 124.984 196Z" fill="#C8A82F"/>
<path d="M130 209H79V200.952C79 198.229 81.2574 196 84.0164 196H124.984C127.743 196 130 198.229 130 200.952V209Z" stroke="#323345" stroke-width="6" stroke-miterlimit="10" stroke-linecap="round" stroke-linejoin="round"/>
<path d="M142 220H67V218.429C67 213.204 71.4505 209 76.8901 209H132.069C137.549 209 141.959 213.243 141.959 218.429V220H142Z" fill="#1B6E44"/>
<path d="M67.2473 216C67.0824 216.758 67 217.516 67 218.316V220H142V218.316C142 217.516 141.918 216.716 141.753 216H67.2473Z" fill="#145B34"/>
<path opacity="0.59" d="M132.074 209H76.8847C71.4069 209 67 213.243 67 218.429V220H67.0824C67.6178 215.286 71.8188 211.632 76.9259 211.632H132.074C137.181 211.632 141.341 215.286 141.918 220H142V218.429C141.959 213.243 137.511 209 132.074 209Z" fill="#C8A82F"/>
<path opacity="0.3" d="M209 350H0L66.9427 220H142.057L209 350Z" fill="url(#paint1_linear)"/>
<path opacity="0.3" d="M185 350H24L66.9718 220H142.028L185 350Z" fill="url(#paint2_linear)"/>
<path opacity="0.3" d="M157 350H52L67.1174 220H141.883L157 350Z" fill="url(#paint3_linear)"/>
<path d="M142 220H67V218.429C67 213.204 71.4505 209 76.8901 209H132.069C137.549 209 141.959 213.243 141.959 218.429V220H142Z" stroke="#323345" stroke-width="6" stroke-miterlimit="10" stroke-linecap="round" stroke-linejoin="round"/>
<path d="M123 117C110.667 117 98.3333 117 86 117C86.37 114.4 88.0967 111.6 90.3989 109C99.8133 109 109.228 109 118.642 109C120.944 111.6 122.63 114.4 123 117Z" fill="#145B34"/>
<path d="M108.547 117H100.481C97.3359 117 95.1985 113.88 96.2873 110.96C96.5293 110.32 96.8116 109.64 97.0939 109C104.071 109 104.877 109 111.854 109C112.136 109.64 112.419 110.28 112.661 110.96C113.87 113.84 111.693 117 108.547 117Z" fill="#1B6E44"/>
<path d="M125 95H83L86.7842 91H121.216L125 95Z" fill="#145B34"/>
<path d="M123 117C110.667 117 98.3333 117 86 117C86.37 114.4 88.0967 111.6 90.3989 109C99.8133 109 109.228 109 118.642 109C120.944 111.6 122.63 114.4 123 117Z" stroke="#323345" stroke-width="6" stroke-miterlimit="10" stroke-linecap="round" stroke-linejoin="round"/>
<path d="M117.193 95H91.6391L90.2942 98.3939C90.0841 98.903 90 99.4121 90 99.9212V109H119V100.006C119 99.4121 118.874 98.8606 118.664 98.3515L117.193 95Z" fill="#145B34"/>
<path d="M107.028 95H102.012C100.127 95 98.4815 96.4468 98.1204 98.4043C98.0401 98.9149 98 99.4255 98 99.9362V103.638C98 106.617 100.287 109 103.056 109H105.944C108.753 109 111 106.574 111 103.638V99.9787C111 99.383 110.96 98.8298 110.84 98.3191C110.519 96.4043 108.914 95 107.028 95Z" fill="#1B6E44"/>
<path d="M117.193 95H91.6391L90.2942 98.3939C90.0841 98.903 90 99.4121 90 99.9212V109H119V100.006C119 99.4121 118.874 98.8606 118.664 98.3515L117.193 95Z" stroke="#323345" stroke-width="6" stroke-miterlimit="10" stroke-linecap="round" stroke-linejoin="round"/>
<path d="M125 95H83L86.7842 91H121.216L125 95Z" stroke="#323345" stroke-width="6" stroke-miterlimit="10" stroke-linecap="round" stroke-linejoin="round"/>
<path d="M118.675 69H89.3248L87 91H121L118.675 69Z" fill="#145B34"/>
<path d="M113.089 69H94.9113L94.0174 82.8023C93.7194 87.2358 97.2952 91 101.808 91H106.192C110.705 91 114.281 87.2358 113.983 82.8023L113.089 69Z" fill="#1B6E44"/>
<path d="M118.675 69H89.3248L87 91H121L118.675 69Z" stroke="#323345" stroke-width="6" stroke-miterlimit="10" stroke-linecap="round" stroke-linejoin="round"/>
<path d="M117.135 65.7273C114.698 65.7273 112.343 64.7045 110.691 62.9045C109.039 61.1045 106.643 60 104 60C101.357 60 98.9609 61.1045 97.3087 62.9045C95.6565 64.7045 93.3022 65.7273 90.8652 65.7273H85V69H123V65.7273H117.135Z" fill="#145B34"/>
<path d="M117.135 65.7273C114.698 65.7273 112.343 64.7045 110.691 62.9045C109.039 61.1045 106.643 60 104 60C101.357 60 98.9609 61.1045 97.3087 62.9045C95.6565 64.7045 93.3022 65.7273 90.8652 65.7273H85V69H123V65.7273H117.135Z" stroke="#323345" stroke-width="6" stroke-miterlimit="10" stroke-linecap="round" stroke-linejoin="round"/>
<path d="M97 103C98.1046 103 99 102.328 99 101.5C99 100.672 98.1046 100 97 100C95.8954 100 95 100.672 95 101.5C95 102.328 95.8954 103 97 103Z" fill="#323345"/>
<path d="M104 103C105.105 103 106 102.328 106 101.5C106 100.672 105.105 100 104 100C102.895 100 102 100.672 102 101.5C102 102.328 102.895 103 104 103Z" fill="#323345"/>
<path d="M111 103C112.105 103 113 102.328 113 101.5C113 100.672 112.105 100 111 100C109.895 100 109 100.672 109 101.5C109 102.328 109.895 103 111 103Z" fill="#323345"/>
<path d="M105.881 149C105.235 150.827 104.104 153.486 102.043 156.268C98.5693 160.962 96.1455 161.086 94.772 164.367C93.1965 168.147 93.9237 174.128 97.9633 177.575C102.124 181.106 107.78 180.275 111.335 178.281C117.879 174.543 118 166.236 118 165.406C118 158.511 113.193 151.99 105.881 149Z" fill="#FBAF41"/>
<path d="M107.224 154C106.382 155.614 105.02 157.932 102.815 160.208C99.4091 163.726 97.3653 163.643 96.0027 166.209C94.3196 169.355 94.6402 174.611 97.8462 177.715C101.493 181.191 106.863 180.115 109.949 178.336C116.08 174.818 116 166.954 116 166.623C115.84 161.243 112.393 156.318 107.224 154Z" fill="#CC8127"/>
<path d="M105.881 149C105.235 150.827 104.104 153.486 102.043 156.268C98.5693 160.962 96.1455 161.086 94.772 164.367C93.1965 168.147 93.9237 174.128 97.9633 177.575C102.124 181.106 107.78 180.275 111.335 178.281C117.879 174.543 118 166.236 118 165.406C118 158.511 113.193 151.99 105.881 149Z" stroke="#323345" stroke-width="4" stroke-miterlimit="10" stroke-linecap="round" stroke-linejoin="round"/>
<path d="M115 189C113.437 180.742 109.309 175 104.5 175C99.6508 175 95.563 180.742 94 189H115Z" fill="#1B6E44"/>
<path d="M104 178.351C108.082 178.351 111.714 181.308 114 186C112.041 179.376 108.327 175 104 175C99.7143 175 95.9592 179.376 94 186C96.2857 181.308 99.9184 178.351 104 178.351Z" fill="#C8A82F"/>
<path d="M115 189C113.437 180.742 109.309 175 104.5 175C99.6508 175 95.563 180.742 94 189H115Z" stroke="#323345" stroke-width="4" stroke-miterlimit="10" stroke-linecap="round" stroke-linejoin="round"/>
<path d="M118 186H91V190H118V186Z" fill="#145B34"/>
<path d="M118 186H91V190H118V186Z" stroke="#323345" stroke-width="4" stroke-miterlimit="10" stroke-linecap="round" stroke-linejoin="round"/>
<path d="M139 88C141.209 88 143 86.2091 143 84C143 81.7909 141.209 80 139 80C136.791 80 135 81.7909 135 84C135 86.2091 136.791 88 139 88Z" fill="#323345"/>
<path d="M70.5 88C72.9853 88 75 86.2091 75 84C75 81.7909 72.9853 80 70.5 80C68.0147 80 66 81.7909 66 84C66 86.2091 68.0147 88 70.5 88Z" fill="#323345"/>
<path d="M136.378 89.7464L137.368 83.1894C137.409 83.1894 137.45 83.1894 137.532 83.1894C141.45 83.1894 144.626 80.0552 144.626 76.1787C144.626 72.9621 142.44 70.2816 139.512 69.4568L145.657 29.0425C147.595 16.3822 137.697 4.95895 124.748 4.95895H104.088H83.4269C70.4778 4.95895 60.5805 16.3409 62.5187 29.0425L68.6633 69.4568C65.8178 70.0341 63.5497 73.0033 63.5497 76.1787C63.5497 80.0552 66.7251 83.1894 70.6428 83.1894C70.684 83.1894 70.7252 83.1894 70.8077 83.1894L71.7975 89.7464" stroke="#323345" stroke-width="8" stroke-miterlimit="10" stroke-linecap="round" stroke-linejoin="round"/>
<path d="M109.737 8.17559H98.0667C96.912 8.17559 95.9635 7.22709 95.9635 6.0724V3.10319C95.9635 1.94849 96.912 1 98.0667 1H109.737C110.892 1 111.841 1.94849 111.841 3.10319V6.0724C111.841 7.22709 110.892 8.17559 109.737 8.17559Z" fill="#323345"/>
<path d="M123 196H86L91.6146 189H117.426L123 196Z" fill="#1B6E44"/>
<path opacity="0.59" d="M90 190.792C93.431 192.75 98.6592 194 104.5 194C110.341 194 115.569 192.75 119 190.792L117.53 189H91.4296L90 190.792Z" fill="#C8A82F"/>
<path d="M123 196H86L91.6146 189H117.426L123 196Z" stroke="#323345" stroke-width="4" stroke-miterlimit="10" stroke-linecap="round" stroke-linejoin="round"/>
<path d="M143.844 191.403C140.17 195.665 135.01 198 129.23 198H79.7328C73.9534 198 68.7931 195.665 65.119 191.403C60.9495 186.569 59.2157 179.767 60.3303 172.843L73.6231 89.9562C74.49 84.466 81.4667 80 89.1864 80H119.776C127.455 80 134.432 84.466 135.34 89.9562L148.674 172.843C149.789 179.808 148.013 186.569 143.844 191.403Z" stroke="#323345" stroke-width="4" stroke-miterlimit="10" stroke-linecap="round" stroke-linejoin="round"/>
<path d="M109.574 69H97.4262C97.2131 69 97 68.84 97 68.6C97 66.6 98.7049 65 100.836 65H106.164C108.295 65 110 66.6 110 68.6C110 68.84 109.83 69 109.574 69Z" fill="#323345"/>
<path d="M105.518 161C105.643 161.8 105.727 162.853 105.602 164.032C105.518 165.338 105.226 166.475 104.935 167.317C104.518 165.506 103.35 163.906 103.183 163.99C103.183 163.99 103.183 163.99 103.183 164.032C103.1 164.411 101.14 166.896 100.765 167.444C99.7641 168.96 99.5556 172.203 101.307 173.887C102.808 175.319 105.31 175.235 106.978 174.392C109.771 172.961 110.314 169.212 109.855 166.728C109.146 163.106 106.06 161.295 105.518 161Z" fill="#FBAF41"/>
<path d="M105.518 161C105.643 161.8 105.727 162.853 105.602 164.032C105.518 165.338 105.226 166.475 104.935 167.317C104.518 165.506 103.35 163.906 103.183 163.99C103.183 163.99 103.183 163.99 103.183 164.032C103.1 164.411 101.14 166.896 100.765 167.444C99.7641 168.96 99.5556 172.203 101.307 173.887C102.808 175.319 105.31 175.235 106.978 174.392C109.771 172.961 110.314 169.212 109.855 166.728C109.146 163.106 106.06 161.295 105.518 161Z" stroke="#323345" stroke-width="4" stroke-miterlimit="10" stroke-linecap="round" stroke-linejoin="round"/>
<defs>
<radialGradient id="paint0_radial" cx="0" cy="0" r="1" gradientUnits="userSpaceOnUse" gradientTransform="translate(104.5 154.5) scale(23.5)">
<stop offset="0.1237" stop-color="#F2CA91"/>
<stop offset="1" stop-color="#F2CA91" stop-opacity="0.3"/>
</radialGradient>
<linearGradient id="paint1_linear" x1="104.5" y1="220" x2="104.5" y2="350" gradientUnits="userSpaceOnUse">
<stop stop-color="#292E42" stop-opacity="0.7"/>
<stop offset="1" stop-color="#151721" stop-opacity="0"/>
</linearGradient>
<linearGradient id="paint2_linear" x1="104.5" y1="220" x2="104.5" y2="350" gradientUnits="userSpaceOnUse">
<stop stop-color="#292E42" stop-opacity="0.7"/>
<stop offset="1" stop-color="#151721" stop-opacity="0"/>
</linearGradient>
<linearGradient id="paint3_linear" x1="104.5" y1="220" x2="104.5" y2="350" gradientUnits="userSpaceOnUse">
<stop stop-color="#292E42" stop-opacity="0.7"/>
<stop offset="1" stop-color="#151721" stop-opacity="0"/>
</linearGradient>
</defs>
</svg>
