<svg width="305" height="350" viewBox="0 0 305 350" fill="none" xmlns="http://www.w3.org/2000/svg">
<g id="Group 2">
<path id="XMLID 70" d="M152.5 307C236.723 307 305 238.723 305 154.5C305 70.2766 236.723 2 152.5 2C68.2766 2 0 70.2766 0 154.5C0 238.723 68.2766 307 152.5 307Z" fill="#515362"/>
<path id="XMLID 69" opacity="0.86" d="M152.5 271C216.841 271 269 218.841 269 154.5C269 90.1588 216.841 38 152.5 38C88.1588 38 36 90.1588 36 154.5C36 218.841 88.1588 271 152.5 271Z" fill="#4C6166"/>
<path id="XMLID 34" opacity="0.61" d="M152.5 241C200.825 241 240 202.049 240 154C240 105.951 200.825 67 152.5 67C104.175 67 65 105.951 65 154C65 202.049 104.175 241 152.5 241Z" fill="url(#paint0_radial)"/>
<path id="XMLID 54" opacity="0.89" d="M152.5 216C186.466 216 214 188.466 214 154.5C214 120.534 186.466 93 152.5 93C118.534 93 91 120.534 91 154.5C91 188.466 118.534 216 152.5 216Z" fill="url(#paint1_radial)"/>
<path id="XMLID 60" d="M200.625 172.899L187.364 89.4834C186.128 81.8552 177.397 76 167.76 76H137.241C127.604 76 118.873 81.814 117.637 89.4834L104.376 172.899C101.864 188.816 112.201 203 127.81 203H177.191C192.759 203 203.138 188.816 200.625 172.899ZM187.982 189.558C186.087 191.784 182.669 194.753 177.191 194.753H127.769C122.291 194.753 118.873 191.661 116.978 189.434C113.766 185.641 112.407 180.074 113.313 174.549L126.575 91.4214C126.945 89.0299 131.27 85.8961 137.2 85.8961H167.718C173.649 85.8961 177.974 88.9474 178.344 91.339L191.606 174.549C192.553 180.115 191.194 185.764 187.982 189.558Z" stroke="#323345" stroke-width="6" stroke-miterlimit="10" stroke-linecap="round" stroke-linejoin="round"/>
<path id="XMLID 20" d="M200.625 172.899L187.364 89.4834C186.128 81.8552 177.397 76 167.76 76H137.241C127.604 76 118.873 81.814 117.637 89.4834L104.376 172.899C101.864 188.816 112.201 203 127.81 203H177.191C192.759 203 203.138 188.816 200.625 172.899ZM187.982 189.558C186.087 191.784 182.669 194.753 177.191 194.753H127.769C122.291 194.753 118.873 191.661 116.978 189.434C113.766 185.641 112.407 180.074 113.313 174.549L126.575 91.4214C126.945 89.0299 131.27 85.8961 137.2 85.8961H167.718C173.649 85.8961 177.974 88.9474 178.344 91.339L191.606 174.549C192.553 180.115 191.194 185.764 187.982 189.558Z" fill="#1C6F45"/>
<path id="XMLID 82" d="M200.625 172.899L187.364 89.4834C186.128 81.8552 177.397 76 167.76 76H137.241C127.604 76 118.873 81.814 117.637 89.4834L104.376 172.899C101.864 188.816 112.201 203 127.81 203H177.191C192.759 203 203.138 188.816 200.625 172.899ZM187.982 189.558C186.087 191.784 182.669 194.753 177.191 194.753H127.769C122.291 194.753 118.873 191.661 116.978 189.434C113.766 185.641 112.407 180.074 113.313 174.549L126.575 91.4214C126.945 89.0299 131.27 85.8961 137.2 85.8961H167.718C173.649 85.8961 177.974 88.9474 178.344 91.339L191.606 174.549C192.553 180.115 191.194 185.764 187.982 189.558Z" fill="#1C6F45"/>
<path id="XMLID 194" opacity="0.59" d="M113.722 174.351L124 113.05C121.291 111.038 118.367 109.314 115.184 108L104.39 172.75C103.745 176.65 103.917 180.469 104.777 184C107.96 183.589 110.97 182.809 113.851 181.742C113.335 179.36 113.292 176.856 113.722 174.351Z" fill="#C8A82F"/>
<path id="XMLID 193" opacity="0.59" d="M192.114 173.821C192.428 175.943 192.428 178.105 192.153 180.144C194.746 181.409 197.495 182.388 200.363 183C201.07 179.614 201.227 175.983 200.638 172.23L190.935 109C188.067 110.55 185.396 112.508 183 114.752L192.114 173.821Z" fill="#C8A82F"/>
<path id="XMLID 1" d="M177.223 203H127.806C112.24 203 101.863 188.816 104.375 172.899L117.635 89.4834C118.87 81.8552 127.601 76 137.237 76H167.752C177.388 76 186.118 81.814 187.354 89.4834L200.614 172.899C203.167 188.816 192.79 203 177.223 203Z" stroke="#323345" stroke-width="6" stroke-miterlimit="10" stroke-linecap="round" stroke-linejoin="round"/>
<path id="XMLID 42" d="M200.625 172.899L187.364 89.4834C186.128 81.8552 177.397 76 167.76 76H137.241C127.604 76 118.873 81.814 117.637 89.4834L104.376 172.899C101.864 188.816 112.201 203 127.81 203H177.191C192.759 203 203.138 188.816 200.625 172.899ZM191.729 192.238C188.064 196.526 182.916 198.877 177.15 198.877H127.769C122.003 198.877 116.855 196.526 113.189 192.238C109.03 187.372 107.3 180.528 108.412 173.559L121.674 90.1432C122.538 84.6179 129.499 80.1234 137.2 80.1234H167.718C175.379 80.1234 182.339 84.6179 183.245 90.1432L196.548 173.559C197.66 180.569 195.889 187.372 191.729 192.238Z" fill="#145B34"/>
<path id="XMLID 88" d="M200.625 172.899L187.364 89.4834C186.128 81.8552 177.397 76 167.76 76H137.241C127.604 76 118.873 81.814 117.637 89.4834L104.376 172.899C101.864 188.816 112.201 203 127.81 203H177.191C192.759 203 203.138 188.816 200.625 172.899Z" stroke="#323345" stroke-width="6" stroke-miterlimit="10" stroke-linecap="round" stroke-linejoin="round"/>
<path id="XMLID 47" d="M164.807 113C156.558 113 148.309 113 140.1 113C133.607 120.547 127.89 130.528 125.358 142.447C122.377 155.975 124.378 171.111 130.626 182.783C132.954 187.154 137.895 190 142.796 190C149.452 190 156.149 190 162.806 190C167.788 190 172.851 187.072 175.097 182.618C180.815 171.276 182.897 156.305 179.018 140.591C176.2 128.713 170.769 119.351 164.807 113Z" fill="#DFC19F"/>
<path id="XMLID 72" d="M152.5 178C165.479 178 176 167.479 176 154.5C176 141.521 165.479 131 152.5 131C139.521 131 129 141.521 129 154.5C129 167.479 139.521 178 152.5 178Z" fill="url(#paint2_radial)"/>
<path id="XMLID 45" d="M146.892 128.258C148.793 121.577 147.937 115.478 144.98 114.637C142.022 113.795 138.084 118.529 136.182 125.21C134.281 131.892 135.137 137.99 138.094 138.832C141.052 139.673 144.99 134.939 146.892 128.258Z" fill="#ECDBC9"/>
<path id="XMLID 10" d="M164.807 113C156.558 113 148.309 113 140.1 113C133.607 120.547 127.89 130.363 125.358 142.241C122.377 155.769 124.378 171.028 130.626 182.7C132.954 187.072 137.895 190 142.796 190C149.452 190 156.149 190 162.806 190C167.788 190 172.851 186.866 175.097 182.411C180.815 171.07 182.897 156.181 179.018 140.509C176.2 128.59 170.769 119.351 164.807 113Z" stroke="#323345" stroke-width="4" stroke-miterlimit="10" stroke-linecap="round" stroke-linejoin="round"/>
<path id="XMLID 32" d="M178 209H127V200.952C127 198.229 129.257 196 132.016 196H172.984C175.743 196 178 198.229 178 200.952V209Z" fill="#145B34"/>
<path id="XMLID 2" d="M170 206H135V203.275C135 200.374 137.18 198 139.844 198H165.156C167.82 198 170 200.374 170 203.275V206Z" fill="#1B6E44"/>
<path id="XMLID 138" opacity="0.59" d="M172.984 196H132.016C129.257 196 127 197.595 127 199.532V202C127 200.063 129.257 198.468 132.016 198.468H172.984C175.743 198.468 178 200.063 178 202V199.532C178 197.595 175.743 196 172.984 196Z" fill="#C8A82F"/>
<path id="XMLID 7" d="M178 209H127V200.952C127 198.229 129.257 196 132.016 196H172.984C175.743 196 178 198.229 178 200.952V209Z" stroke="#323345" stroke-width="6" stroke-miterlimit="10" stroke-linecap="round" stroke-linejoin="round"/>
<path id="XMLID 21" d="M190 220H115V218.429C115 213.204 119.451 209 124.89 209H180.069C185.549 209 189.959 213.243 189.959 218.429V220H190Z" fill="#1B6E44"/>
<path id="XMLID 90" d="M115.247 216C115.082 216.758 115 217.516 115 218.316V220H190V218.316C190 217.516 189.918 216.716 189.753 216H115.247Z" fill="#145B34"/>
<path id="XMLID 99" opacity="0.59" d="M180.074 209H124.885C119.407 209 115 213.243 115 218.429V220H115.082C115.618 215.286 119.819 211.632 124.926 211.632H180.074C185.181 211.632 189.341 215.286 189.918 220H190V218.429C189.959 213.243 185.511 209 180.074 209Z" fill="#C8A82F"/>
<path id="XMLID 83" opacity="0.3" d="M257 350H48L114.943 220H190.057L257 350Z" fill="url(#paint3_linear)"/>
<path id="XMLID 84" opacity="0.3" d="M233 350H72L114.972 220H190.028L233 350Z" fill="url(#paint4_linear)"/>
<path id="XMLID 95" opacity="0.3" d="M205 350H100L115.117 220H189.883L205 350Z" fill="url(#paint5_linear)"/>
<path id="XMLID 8" d="M190 220H115V218.429C115 213.204 119.451 209 124.89 209H180.069C185.549 209 189.959 213.243 189.959 218.429V220H190Z" stroke="#323345" stroke-width="6" stroke-miterlimit="10" stroke-linecap="round" stroke-linejoin="round"/>
<path id="XMLID 63" d="M171 117C158.667 117 146.333 117 134 117C134.37 114.4 136.097 111.6 138.399 109C147.813 109 157.228 109 166.642 109C168.944 111.6 170.63 114.4 171 117Z" fill="#145B34"/>
<path id="XMLID 68" d="M156.547 117H148.481C145.336 117 143.198 113.88 144.287 110.96C144.529 110.32 144.812 109.64 145.094 109C152.071 109 152.877 109 159.854 109C160.136 109.64 160.419 110.28 160.661 110.96C161.87 113.84 159.693 117 156.547 117Z" fill="#1B6E44"/>
<path id="XMLID 40" d="M173 95H131L134.784 91H169.216L173 95Z" fill="#145B34"/>
<path id="XMLID 9" d="M171 117C158.667 117 146.333 117 134 117C134.37 114.4 136.097 111.6 138.399 109C147.813 109 157.228 109 166.642 109C168.944 111.6 170.63 114.4 171 117Z" stroke="#323345" stroke-width="6" stroke-miterlimit="10" stroke-linecap="round" stroke-linejoin="round"/>
<path id="XMLID 46" d="M165.193 95H139.639L138.294 98.3939C138.084 98.903 138 99.4121 138 99.9212V109H167V100.006C167 99.4121 166.874 98.8606 166.664 98.3515L165.193 95Z" fill="#145B34"/>
<path id="XMLID 77" d="M155.028 95H150.012C148.127 95 146.481 96.4468 146.12 98.4043C146.04 98.9149 146 99.4255 146 99.9362V103.638C146 106.617 148.287 109 151.056 109H153.944C156.753 109 159 106.574 159 103.638V99.9787C159 99.383 158.96 98.8298 158.84 98.3191C158.519 96.4043 156.914 95 155.028 95Z" fill="#1B6E44"/>
<path id="XMLID 15" d="M165.193 95H139.639L138.294 98.3939C138.084 98.903 138 99.4121 138 99.9212V109H167V100.006C167 99.4121 166.874 98.8606 166.664 98.3515L165.193 95Z" stroke="#323345" stroke-width="6" stroke-miterlimit="10" stroke-linecap="round" stroke-linejoin="round"/>
<path id="XMLID 11" d="M173 95H131L134.784 91H169.216L173 95Z" stroke="#323345" stroke-width="6" stroke-miterlimit="10" stroke-linecap="round" stroke-linejoin="round"/>
<path id="XMLID 33" d="M166.675 69H137.325L135 91H169L166.675 69Z" fill="#145B34"/>
<path id="XMLID 74" d="M161.089 69H142.911L142.017 82.8023C141.719 87.2358 145.295 91 149.808 91H154.192C158.705 91 162.281 87.2358 161.983 82.8023L161.089 69Z" fill="#1B6E44"/>
<path id="XMLID 12" d="M166.675 69H137.325L135 91H169L166.675 69Z" stroke="#323345" stroke-width="6" stroke-miterlimit="10" stroke-linecap="round" stroke-linejoin="round"/>
<path id="XMLID 39" d="M165.135 65.7273C162.698 65.7273 160.343 64.7045 158.691 62.9045C157.039 61.1045 154.643 60 152 60C149.357 60 146.961 61.1045 145.309 62.9045C143.657 64.7045 141.302 65.7273 138.865 65.7273H133V69H171V65.7273H165.135Z" fill="#145B34"/>
<path id="XMLID 18" d="M165.135 65.7273C162.698 65.7273 160.343 64.7045 158.691 62.9045C157.039 61.1045 154.643 60 152 60C149.357 60 146.961 61.1045 145.309 62.9045C143.657 64.7045 141.302 65.7273 138.865 65.7273H133V69H171V65.7273H165.135Z" stroke="#323345" stroke-width="6" stroke-miterlimit="10" stroke-linecap="round" stroke-linejoin="round"/>
<path id="XMLID 13" d="M145 103C146.105 103 147 102.328 147 101.5C147 100.672 146.105 100 145 100C143.895 100 143 100.672 143 101.5C143 102.328 143.895 103 145 103Z" fill="#323345"/>
<path id="XMLID 19" d="M152 103C153.105 103 154 102.328 154 101.5C154 100.672 153.105 100 152 100C150.895 100 150 100.672 150 101.5C150 102.328 150.895 103 152 103Z" fill="#323345"/>
<path id="XMLID 49" d="M159 103C160.105 103 161 102.328 161 101.5C161 100.672 160.105 100 159 100C157.895 100 157 100.672 157 101.5C157 102.328 157.895 103 159 103Z" fill="#323345"/>
<path id="XMLID 48" d="M153.881 149C153.235 150.827 152.104 153.486 150.043 156.268C146.569 160.962 144.145 161.086 142.772 164.367C141.197 168.147 141.924 174.128 145.963 177.575C150.124 181.106 155.78 180.275 159.335 178.281C165.879 174.543 166 166.236 166 165.406C166 158.511 161.193 151.99 153.881 149Z" fill="#FBAF41"/>
<path id="XMLID 50" d="M155.224 154C154.382 155.614 153.02 157.932 150.815 160.208C147.409 163.726 145.365 163.643 144.003 166.209C142.32 169.355 142.64 174.611 145.846 177.715C149.493 181.191 154.863 180.115 157.949 178.336C164.08 174.818 164 166.954 164 166.623C163.84 161.243 160.393 156.318 155.224 154Z" fill="#CC8127"/>
<path id="XMLID 24" d="M153.881 149C153.235 150.827 152.104 153.486 150.043 156.268C146.569 160.962 144.145 161.086 142.772 164.367C141.197 168.147 141.924 174.128 145.963 177.575C150.124 181.106 155.78 180.275 159.335 178.281C165.879 174.543 166 166.236 166 165.406C166 158.511 161.193 151.99 153.881 149Z" stroke="#323345" stroke-width="4" stroke-miterlimit="10" stroke-linecap="round" stroke-linejoin="round"/>
<path id="XMLID 41" d="M163 189C161.437 180.742 157.309 175 152.5 175C147.651 175 143.563 180.742 142 189H163Z" fill="#1B6E44"/>
<path id="XMLID 97" d="M152 178.351C156.082 178.351 159.714 181.308 162 186C160.041 179.376 156.327 175 152 175C147.714 175 143.959 179.376 142 186C144.286 181.308 147.918 178.351 152 178.351Z" fill="#C8A82F"/>
<path id="XMLID 25" d="M163 189C161.437 180.742 157.309 175 152.5 175C147.651 175 143.563 180.742 142 189H163Z" stroke="#323345" stroke-width="4" stroke-miterlimit="10" stroke-linecap="round" stroke-linejoin="round"/>
<path id="XMLID 28" d="M166 186H139V190H166V186Z" fill="#145B34"/>
<path id="XMLID 16" d="M166 186H139V190H166V186Z" stroke="#323345" stroke-width="4" stroke-miterlimit="10" stroke-linecap="round" stroke-linejoin="round"/>
<path id="XMLID 52" d="M187 88C189.209 88 191 86.2091 191 84C191 81.7909 189.209 80 187 80C184.791 80 183 81.7909 183 84C183 86.2091 184.791 88 187 88Z" fill="#323345"/>
<path id="XMLID 55" d="M118.5 88C120.985 88 123 86.2091 123 84C123 81.7909 120.985 80 118.5 80C116.015 80 114 81.7909 114 84C114 86.2091 116.015 88 118.5 88Z" fill="#323345"/>
<g id="Group">
<path id="XMLID 59" d="M184.378 89.7464L185.368 83.1894C185.409 83.1894 185.45 83.1894 185.532 83.1894C189.45 83.1894 192.626 80.0552 192.626 76.1787C192.626 72.9621 190.44 70.2815 187.512 69.4568L193.657 29.0425C195.595 16.3821 185.697 4.95894 172.748 4.95894H152.088H131.427C118.478 4.95894 108.58 16.3409 110.519 29.0425L116.663 69.4568C113.818 70.0341 111.55 73.0033 111.55 76.1787C111.55 80.0552 114.725 83.1894 118.643 83.1894C118.684 83.1894 118.725 83.1894 118.808 83.1894L119.797 89.7464" stroke="#323345" stroke-width="8" stroke-miterlimit="10" stroke-linecap="round" stroke-linejoin="round"/>
<path id="XMLID 51" d="M157.737 8.17559H146.067C144.912 8.17559 143.964 7.22709 143.964 6.0724V3.10319C143.964 1.94849 144.912 1 146.067 1H157.737C158.892 1 159.841 1.94849 159.841 3.10319V6.0724C159.841 7.22709 158.892 8.17559 157.737 8.17559Z" fill="#323345"/>
</g>
<path id="XMLID 67" d="M171 196H134L139.615 189H165.426L171 196Z" fill="#1B6E44"/>
<path id="XMLID 112" opacity="0.59" d="M138 190.792C141.431 192.75 146.659 194 152.5 194C158.341 194 163.569 192.75 167 190.792L165.53 189H139.43L138 190.792Z" fill="#C8A82F"/>
<path id="XMLID 61" d="M171 196H134L139.615 189H165.426L171 196Z" stroke="#323345" stroke-width="4" stroke-miterlimit="10" stroke-linecap="round" stroke-linejoin="round"/>
<path id="XMLID 86" d="M191.844 191.403C188.17 195.665 183.01 198 177.23 198H127.733C121.953 198 116.793 195.665 113.119 191.403C108.95 186.569 107.216 179.767 108.33 172.843L121.623 89.9562C122.49 84.466 129.467 80 137.186 80H167.776C175.455 80 182.432 84.466 183.34 89.9562L196.674 172.843C197.789 179.808 196.013 186.569 191.844 191.403Z" stroke="#323345" stroke-width="4" stroke-miterlimit="10" stroke-linecap="round" stroke-linejoin="round"/>
<path id="XMLID 81" d="M157.574 69H145.426C145.213 69 145 68.84 145 68.6C145 66.6 146.705 65 148.836 65H154.164C156.295 65 158 66.6 158 68.6C158 68.84 157.83 69 157.574 69Z" fill="#323345"/>
<path id="XMLID 17" d="M153.518 161C153.643 161.8 153.727 162.853 153.602 164.032C153.518 165.338 153.226 166.475 152.935 167.317C152.518 165.506 151.35 163.906 151.183 163.99C151.183 163.99 151.183 163.99 151.183 164.032C151.1 164.411 149.14 166.896 148.765 167.444C147.764 168.96 147.556 172.203 149.307 173.887C150.808 175.319 153.31 175.235 154.978 174.392C157.771 172.961 158.314 169.212 157.855 166.728C157.146 163.106 154.06 161.295 153.518 161Z" fill="#FBAF41"/>
<path id="XMLID 27" d="M153.518 161C153.643 161.8 153.727 162.853 153.602 164.032C153.518 165.338 153.226 166.475 152.935 167.317C152.518 165.506 151.35 163.906 151.183 163.99C151.183 163.99 151.183 163.99 151.183 164.032C151.1 164.411 149.14 166.896 148.765 167.444C147.764 168.96 147.556 172.203 149.307 173.887C150.808 175.319 153.31 175.235 154.978 174.392C157.771 172.961 158.314 169.212 157.855 166.728C157.146 163.106 154.06 161.295 153.518 161Z" stroke="#323345" stroke-width="4" stroke-miterlimit="10" stroke-linecap="round" stroke-linejoin="round"/>
</g>
<defs>
<radialGradient id="paint0_radial" cx="0" cy="0" r="1" gradientUnits="userSpaceOnUse" gradientTransform="translate(152.5 154) scale(221.573 220.307)">
<stop stop-color="#F29543"/>
<stop offset="0.1095" stop-color="#F09543" stop-opacity="0.8014"/>
<stop offset="0.1711" stop-color="#E79645" stop-opacity="0.6898"/>
<stop offset="0.2208" stop-color="#DA9747" stop-opacity="0.5997"/>
<stop offset="0.2641" stop-color="#C6994A" stop-opacity="0.5211"/>
<stop offset="0.3033" stop-color="#AC9B4E" stop-opacity="0.45"/>
<stop offset="0.3396" stop-color="#8D9E53" stop-opacity="0.3844"/>
<stop offset="0.3735" stop-color="#68A259" stop-opacity="0.3228"/>
<stop offset="0.4057" stop-color="#3CA661" stop-opacity="0.2645"/>
<stop offset="0.4353" stop-color="#0DAA68" stop-opacity="0.2108"/>
<stop offset="0.4413" stop-color="#02AB6A" stop-opacity="0.2"/>
</radialGradient>
<radialGradient id="paint1_radial" cx="0" cy="0" r="1" gradientUnits="userSpaceOnUse" gradientTransform="translate(152.5 154.5) scale(61.5)">
<stop stop-color="#F29543"/>
<stop offset="0.1302" stop-color="#EB9847" stop-opacity="0.8637"/>
<stop offset="0.3179" stop-color="#D8A151" stop-opacity="0.667"/>
<stop offset="0.5405" stop-color="#B9AF61" stop-opacity="0.4339"/>
<stop offset="0.7638" stop-color="#92C176" stop-opacity="0.2"/>
</radialGradient>
<radialGradient id="paint2_radial" cx="0" cy="0" r="1" gradientUnits="userSpaceOnUse" gradientTransform="translate(152.5 154.5) scale(23.5)">
<stop offset="0.1237" stop-color="#F2CA91"/>
<stop offset="1" stop-color="#F2CA91" stop-opacity="0.3"/>
</radialGradient>
<linearGradient id="paint3_linear" x1="152.5" y1="220" x2="152.5" y2="350" gradientUnits="userSpaceOnUse">
<stop stop-color="#292E42" stop-opacity="0.7"/>
<stop offset="1" stop-color="#151721" stop-opacity="0"/>
</linearGradient>
<linearGradient id="paint4_linear" x1="152.5" y1="220" x2="152.5" y2="350" gradientUnits="userSpaceOnUse">
<stop stop-color="#292E42" stop-opacity="0.7"/>
<stop offset="1" stop-color="#151721" stop-opacity="0"/>
</linearGradient>
<linearGradient id="paint5_linear" x1="152.5" y1="220" x2="152.5" y2="350" gradientUnits="userSpaceOnUse">
<stop stop-color="#292E42" stop-opacity="0.7"/>
<stop offset="1" stop-color="#151721" stop-opacity="0"/>
</linearGradient>
</defs>
</svg>
