<svg width="15" height="13" viewBox="0 0 15 13" fill="none" xmlns="http://www.w3.org/2000/svg">
<path d="M7.75102 0.651919L2.6736 3.7358H1.61133C0.722842 3.7358 0 4.45864 0 5.34712V7.65335C0 8.54183 0.722842 9.26467 1.61133 9.26467H2.46861C2.4699 9.26544 2.4711 9.26631 2.47242 9.26708L7.76194 12.3551C8.24637 12.6379 8.86362 12.2896 8.86362 11.7226V1.27791C8.86362 0.707818 8.23831 0.355904 7.75102 0.651919V0.651919ZM0.878906 7.65332V5.3471C0.878906 4.94324 1.20747 4.61467 1.61133 4.61467H2.25454V8.38574H1.61133C1.20747 8.38574 0.878906 8.0572 0.878906 7.65332ZM7.98472 11.4674L3.13342 8.63523V4.48483L7.98472 1.53827V11.4674Z" fill="black"/>
<rect x="10.1294" y="4.0946" width="1" height="6" rx="0.5" transform="rotate(-41.7466 10.1294 4.0946)" fill="black"/>
<rect x="14.1133" y="3.42175" width="1" height="6" rx="0.5" transform="rotate(41.497 14.1133 3.42175)" fill="black"/>
</svg>
