<svg width="15" height="15" viewBox="0 0 15 15" fill="none" xmlns="http://www.w3.org/2000/svg">
<g clip-path="url(#clip0)">
<path d="M7.75102 1.65192L2.6736 4.7358H1.61133C0.722842 4.7358 0 5.45864 0 6.34712V8.65335C0 9.54183 0.722842 10.2647 1.61133 10.2647H2.46861C2.4699 10.2654 2.4711 10.2663 2.47242 10.2671L7.76194 13.3551C8.24637 13.6379 8.86362 13.2896 8.86362 12.7226V2.27791C8.86362 1.70782 8.23831 1.3559 7.75102 1.65192V1.65192ZM0.878906 8.65332V6.3471C0.878906 5.94324 1.20747 5.61467 1.61133 5.61467H2.25454V9.38574H1.61133C1.20747 9.38574 0.878906 9.0572 0.878906 8.65332ZM7.98472 12.4674L3.13342 9.63523V5.48483L7.98472 2.53827V12.4674Z" fill="black"/>
<path d="M10.2402 9.31457C9.99754 9.31457 9.80078 9.51132 9.80078 9.75402C9.80078 9.99671 9.99754 10.1935 10.2402 10.1935C11.7253 10.1935 12.9335 8.9853 12.9335 7.50024C12.9335 6.01518 11.7253 4.80701 10.2402 4.80701C9.99754 4.80701 9.80078 5.00376 9.80078 5.24646C9.80078 5.48916 9.99754 5.68591 10.2402 5.68591C11.2407 5.68591 12.0546 6.49981 12.0546 7.50024C12.0546 8.50067 11.2407 9.31457 10.2402 9.31457V9.31457Z" fill="black"/>
<path d="M10.2402 2.74023C9.99754 2.74023 9.80078 2.93699 9.80078 3.17969C9.80078 3.42238 9.99754 3.61914 10.2402 3.61914C12.3803 3.61914 14.1213 5.36017 14.1213 7.50022C14.1213 9.64026 12.3803 11.3813 10.2402 11.3813C9.99754 11.3813 9.80078 11.5781 9.80078 11.8208C9.80078 12.0635 9.99754 12.2602 10.2402 12.2602C12.8649 12.2602 15.0002 10.1249 15.0002 7.50022C15.0002 4.87554 12.8649 2.74023 10.2402 2.74023V2.74023Z" fill="black"/>
</g>
<defs>
<clipPath id="clip0">
<rect width="15" height="15" fill="white"/>
</clipPath>
</defs>
</svg>
